<svg width="1200" height="900" viewBox="0 0 1200 900" fill="none" xmlns="http://www.w3.org/2000/svg">
  <rect width="1200" height="900" rx="40" fill="#100611"/>
  <rect width="1200" height="900" rx="40" fill="url(#bg)"/>
  <circle cx="975" cy="160" r="190" fill="url(#glow1)" fill-opacity="0.9"/>
  <circle cx="220" cy="720" r="240" fill="url(#glow2)" fill-opacity="0.6"/>
  <rect x="72" y="72" width="1056" height="756" rx="32" fill="rgba(255,255,255,0.04)" stroke="rgba(255,255,255,0.12)"/>
  <rect x="132" y="136" width="420" height="528" rx="26" fill="rgba(255,255,255,0.06)" stroke="rgba(255,255,255,0.12)"/>
  <rect x="180" y="210" width="324" height="18" rx="9" fill="#F48CC8"/>
  <rect x="180" y="250" width="268" height="16" rx="8" fill="#F4D7EA" fill-opacity="0.82"/>
  <rect x="180" y="284" width="232" height="16" rx="8" fill="#F4D7EA" fill-opacity="0.45"/>
  <rect x="180" y="356" width="124" height="124" rx="24" fill="rgba(244,95,176,0.18)" stroke="rgba(244,95,176,0.4)"/>
  <path d="M214 420L242 448L294 390" stroke="#FFB1DD" stroke-width="18" stroke-linecap="round" stroke-linejoin="round"/>
  <rect x="334" y="356" width="124" height="124" rx="24" fill="rgba(217,135,255,0.18)" stroke="rgba(217,135,255,0.4)"/>
  <path d="M378 448H414M396 430V466" stroke="#F7ECF6" stroke-width="18" stroke-linecap="round"/>
  <rect x="180" y="522" width="278" height="18" rx="9" fill="#F4D7EA" fill-opacity="0.72"/>
  <rect x="180" y="556" width="220" height="18" rx="9" fill="#F4D7EA" fill-opacity="0.4"/>
  <rect x="630" y="196" width="398" height="250" rx="30" fill="rgba(255,255,255,0.06)" stroke="rgba(255,255,255,0.12)"/>
  <path d="M708 372C752 324 800 330 840 290C866 264 906 236 950 254C986 270 1008 302 1016 344" stroke="url(#line)" stroke-width="10" stroke-linecap="round"/>
  <circle cx="708" cy="372" r="13" fill="#FFD7ED"/>
  <circle cx="840" cy="290" r="13" fill="#FF9DD4"/>
  <circle cx="950" cy="254" r="13" fill="#D987FF"/>
  <circle cx="1016" cy="344" r="13" fill="#FFD7ED"/>
  <rect x="630" y="492" width="398" height="126" rx="30" fill="rgba(255,255,255,0.06)" stroke="rgba(255,255,255,0.12)"/>
  <text x="132" y="760" fill="#F7ECF6" font-family="Georgia, 'Times New Roman', serif" font-size="68" font-weight="700">Compliance Automation</text>
  <text x="136" y="808" fill="#F0C6DE" font-family="Arial, sans-serif" font-size="30" letter-spacing="3">GRC • POLICY • RISK • MONITORING</text>
  <defs>
    <linearGradient id="bg" x1="140" y1="72" x2="1094" y2="818" gradientUnits="userSpaceOnUse">
      <stop stop-color="#160816"/>
      <stop offset="0.5" stop-color="#2A0F2B"/>
      <stop offset="1" stop-color="#110612"/>
    </linearGradient>
    <radialGradient id="glow1" cx="0" cy="0" r="1" gradientUnits="userSpaceOnUse" gradientTransform="translate(975 160) rotate(90) scale(190)">
      <stop stop-color="#F45FB0"/>
      <stop offset="1" stop-color="#F45FB0" stop-opacity="0"/>
    </radialGradient>
    <radialGradient id="glow2" cx="0" cy="0" r="1" gradientUnits="userSpaceOnUse" gradientTransform="translate(220 720) rotate(90) scale(240)">
      <stop stop-color="#9A59FF"/>
      <stop offset="1" stop-color="#9A59FF" stop-opacity="0"/>
    </radialGradient>
    <linearGradient id="line" x1="708" y1="372" x2="1016" y2="344" gradientUnits="userSpaceOnUse">
      <stop stop-color="#FFB5DE"/>
      <stop offset="1" stop-color="#D987FF"/>
    </linearGradient>
  </defs>
</svg>
