<svg width="1200" height="900" viewBox="0 0 1200 900" fill="none" xmlns="http://www.w3.org/2000/svg">
  <rect width="1200" height="900" rx="40" fill="#09060E"/>
  <rect width="1200" height="900" rx="40" fill="url(#bg)"/>
  <circle cx="930" cy="120" r="170" fill="url(#glow1)" fill-opacity="0.85"/>
  <circle cx="250" cy="760" r="210" fill="url(#glow2)" fill-opacity="0.6"/>
  <rect x="74" y="74" width="1052" height="752" rx="34" fill="rgba(255,255,255,0.04)" stroke="rgba(255,255,255,0.12)"/>
  <rect x="118" y="156" width="452" height="440" rx="28" fill="rgba(12,10,22,0.54)" stroke="rgba(255,255,255,0.12)"/>
  <circle cx="344" cy="376" r="112" fill="rgba(255,255,255,0.03)" stroke="rgba(255,255,255,0.16)" stroke-width="18"/>
  <circle cx="344" cy="376" r="52" fill="rgba(244,95,176,0.18)" stroke="#F49BCF" stroke-width="10"/>
  <path d="M420 456L486 522" stroke="#F7ECF6" stroke-width="20" stroke-linecap="round"/>
  <rect x="640" y="170" width="416" height="180" rx="28" fill="rgba(255,255,255,0.06)" stroke="rgba(255,255,255,0.12)"/>
  <rect x="686" y="228" width="180" height="18" rx="9" fill="#F48CC8"/>
  <rect x="686" y="264" width="260" height="18" rx="9" fill="#F4D7EA" fill-opacity="0.72"/>
  <rect x="686" y="300" width="214" height="18" rx="9" fill="#F4D7EA" fill-opacity="0.4"/>
  <rect x="640" y="392" width="416" height="206" rx="28" fill="rgba(255,255,255,0.06)" stroke="rgba(255,255,255,0.12)"/>
  <path d="M700 548L760 486L816 512L884 436L958 462" stroke="url(#line)" stroke-width="12" stroke-linecap="round" stroke-linejoin="round"/>
  <circle cx="700" cy="548" r="12" fill="#FFD7ED"/>
  <circle cx="760" cy="486" r="12" fill="#FF9DD4"/>
  <circle cx="816" cy="512" r="12" fill="#F7ECF6"/>
  <circle cx="884" cy="436" r="12" fill="#D987FF"/>
  <circle cx="958" cy="462" r="12" fill="#FFD7ED"/>
  <text x="120" y="742" fill="#F7ECF6" font-family="Georgia, 'Times New Roman', serif" font-size="68" font-weight="700">DFIR Investigation</text>
  <text x="124" y="790" fill="#F0C6DE" font-family="Arial, sans-serif" font-size="30" letter-spacing="3">TIMELINE • FORENSICS • THREAT ANALYSIS</text>
  <defs>
    <linearGradient id="bg" x1="118" y1="90" x2="1090" y2="808" gradientUnits="userSpaceOnUse">
      <stop stop-color="#120916"/>
      <stop offset="0.45" stop-color="#25112B"/>
      <stop offset="1" stop-color="#0D0811"/>
    </linearGradient>
    <radialGradient id="glow1" cx="0" cy="0" r="1" gradientUnits="userSpaceOnUse" gradientTransform="translate(930 120) rotate(90) scale(170)">
      <stop stop-color="#F45FB0"/>
      <stop offset="1" stop-color="#F45FB0" stop-opacity="0"/>
    </radialGradient>
    <radialGradient id="glow2" cx="0" cy="0" r="1" gradientUnits="userSpaceOnUse" gradientTransform="translate(250 760) rotate(90) scale(210)">
      <stop stop-color="#9A59FF"/>
      <stop offset="1" stop-color="#9A59FF" stop-opacity="0"/>
    </radialGradient>
    <linearGradient id="line" x1="700" y1="548" x2="958" y2="462" gradientUnits="userSpaceOnUse">
      <stop stop-color="#FFB5DE"/>
      <stop offset="1" stop-color="#D987FF"/>
    </linearGradient>
  </defs>
</svg>
