<svg width="1200" height="900" viewBox="0 0 1200 900" fill="none" xmlns="http://www.w3.org/2000/svg">
  <rect width="1200" height="900" rx="40" fill="#0B1018"/>
  <rect width="1200" height="900" rx="40" fill="url(#bg)"/>
  <circle cx="930" cy="120" r="180" fill="url(#glow1)"/>
  <circle cx="245" cy="760" r="220" fill="url(#glow2)"/>
  <rect x="68" y="68" width="1064" height="764" rx="34" fill="rgba(255,255,255,0.03)" stroke="rgba(182,190,204,0.14)"/>
  <rect x="128" y="160" width="388" height="432" rx="28" fill="rgba(255,255,255,0.04)" stroke="rgba(182,190,204,0.14)"/>
  <path d="M322 246L406 286V380C406 446 362 494 322 514C282 494 238 446 238 380V286L322 246Z" fill="rgba(181,148,171,0.18)" stroke="rgba(181,148,171,0.5)" stroke-width="8"/>
  <path d="M288 380L314 406L362 350" stroke="#F4F3F7" stroke-width="16" stroke-linecap="round" stroke-linejoin="round"/>
  <rect x="192" y="548" width="258" height="18" rx="9" fill="#D3C6D1"/>
  <rect x="192" y="582" width="196" height="18" rx="9" fill="#BFC3CF" fill-opacity="0.56"/>
  <rect x="596" y="184" width="450" height="190" rx="28" fill="rgba(255,255,255,0.04)" stroke="rgba(182,190,204,0.14)"/>
  <rect x="644" y="238" width="180" height="16" rx="8" fill="#B594AB"/>
  <rect x="644" y="272" width="278" height="16" rx="8" fill="#F4F3F7" fill-opacity="0.72"/>
  <rect x="644" y="306" width="224" height="16" rx="8" fill="#F4F3F7" fill-opacity="0.4"/>
  <rect x="596" y="420" width="450" height="196" rx="28" fill="rgba(255,255,255,0.04)" stroke="rgba(182,190,204,0.14)"/>
  <path d="M658 536H738L778 482H856L892 514H984" stroke="url(#line)" stroke-width="12" stroke-linecap="round" stroke-linejoin="round"/>
  <circle cx="658" cy="536" r="12" fill="#D3C6D1"/>
  <circle cx="778" cy="482" r="12" fill="#B594AB"/>
  <circle cx="892" cy="514" r="12" fill="#BFC3CF"/>
  <circle cx="984" cy="514" r="12" fill="#F4F3F7"/>
  <text x="120" y="744" fill="#F4F3F7" font-family="Georgia, 'Times New Roman', serif" font-size="66" font-weight="700">The Prompt Firewall</text>
  <text x="124" y="792" fill="#D3C6D1" font-family="Arial, sans-serif" font-size="28" letter-spacing="3">LLM SECURITY GATEWAY • INPUT DEFENSE • SAFE PROMPTS</text>
  <defs>
    <linearGradient id="bg" x1="128" y1="80" x2="1080" y2="820" gradientUnits="userSpaceOnUse">
      <stop stop-color="#0E1520"/>
      <stop offset="0.52" stop-color="#192231"/>
      <stop offset="1" stop-color="#0A1018"/>
    </linearGradient>
    <radialGradient id="glow1" cx="0" cy="0" r="1" gradientUnits="userSpaceOnUse" gradientTransform="translate(930 120) rotate(90) scale(180)">
      <stop stop-color="#B594AB" stop-opacity="0.22"/>
      <stop offset="1" stop-color="#B594AB" stop-opacity="0"/>
    </radialGradient>
    <radialGradient id="glow2" cx="0" cy="0" r="1" gradientUnits="userSpaceOnUse" gradientTransform="translate(245 760) rotate(90) scale(220)">
      <stop stop-color="#78839B" stop-opacity="0.18"/>
      <stop offset="1" stop-color="#78839B" stop-opacity="0"/>
    </radialGradient>
    <linearGradient id="line" x1="658" y1="536" x2="984" y2="514" gradientUnits="userSpaceOnUse">
      <stop stop-color="#9FA8BC"/>
      <stop offset="1" stop-color="#B594AB"/>
    </linearGradient>
  </defs>
</svg>
